<svg xmlns="http://www.w3.org/2000/svg" viewBox="0 0 1200 630" font-family="Georgia, serif">
  <defs>
    <linearGradient id="bg" x1="0" y1="0" x2="1200" y2="630" gradientUnits="userSpaceOnUse">
      <stop stop-color="#0E2340"/><stop offset="0.55" stop-color="#0A1A2F"/><stop offset="1" stop-color="#060F1D"/>
    </linearGradient>
    <linearGradient id="gold" x1="0" y1="0" x2="1" y2="1">
      <stop stop-color="#F4E5B8"/><stop offset="0.5" stop-color="#E4C15A"/><stop offset="1" stop-color="#C9A227"/>
    </linearGradient>
    <radialGradient id="glow" cx="0.82" cy="0.15" r="0.5">
      <stop stop-color="#E4C15A" stop-opacity="0.28"/><stop offset="1" stop-color="#E4C15A" stop-opacity="0"/>
    </radialGradient>
  </defs>
  <rect width="1200" height="630" fill="url(#bg)"/>
  <rect width="1200" height="630" fill="url(#glow)"/>
  <g opacity="0.06" stroke="#fff" stroke-width="1">
    <path d="M0 158 H1200 M0 316 H1200 M0 474 H1200 M300 0 V630 M600 0 V630 M900 0 V630"/>
  </g>
  <!-- emblem -->
  <g transform="translate(96,96)">
    <rect x="0" y="0" width="92" height="92" rx="22" fill="none" stroke="url(#gold)" stroke-width="2.4"/>
    <path d="M32 24 V68 M32 46 L56 24 M32 46 L56 68" fill="none" stroke="#E4C15A" stroke-width="6" stroke-linecap="round" stroke-linejoin="round"/>
    <circle cx="62" cy="30" r="4" fill="#EAD196"/>
  </g>
  <text x="210" y="132" fill="#ffffff" font-size="34" letter-spacing="1">KPMJ <tspan fill="#E4C15A">&amp;</tspan> Associates</text>
  <text x="210" y="170" fill="#EAD196" font-family="Arial, sans-serif" font-size="18" letter-spacing="4">TAX · GST · FINANCIAL CONSULTANTS · JAIPUR</text>

  <text x="96" y="352" fill="#ffffff" font-size="82" font-weight="bold">Precision in every number,</text>
  <text x="96" y="446" fill="url(#gold)" font-size="82" font-weight="bold">confidence in every filing.</text>

  <g font-family="Arial, sans-serif">
    <text x="96" y="536" fill="#E4C15A" font-size="26">★★★★★</text>
    <text x="240" y="536" fill="#C7D2E0" font-size="24">4.8 on Google · 25+ reviews · Since 2021</text>
    <text x="96" y="580" fill="#8FA1B4" font-size="22">+91 99505 54949 · Gandhi Path, Lalarpura, Jaipur</text>
  </g>
</svg>
